<svg xmlns="http://www.w3.org/2000/svg" width="67.902" height="67.902" viewBox="0 0 67.902 67.902">
  <path id="Union_88" data-name="Union 88" d="M23335.619,22620.9a5.482,5.482,0,0,1-5.477-5.477v-7.664h-5.475a7.68,7.68,0,0,1-7.67-7.67v-10.951a7.679,7.679,0,0,1,7.67-7.666h5.475v-22.994a5.483,5.483,0,0,1,5.477-5.48h30.664a5.486,5.486,0,0,1,5.477,5.48v5.471h5.475a7.676,7.676,0,0,1,7.666,7.67v10.951a7.675,7.675,0,0,1-7.666,7.666h-5.475v25.188a5.486,5.486,0,0,1-5.477,5.477Zm-3.287-5.477a3.292,3.292,0,0,0,3.287,3.287h30.664a3.291,3.291,0,0,0,3.281-3.287v-3.285h-37.232Zm0-5.475h37.232v-19.713h-9.854a7.675,7.675,0,0,1-7.666-7.666v-10.951a7.676,7.676,0,0,1,7.666-7.67h9.854v-2.189h-37.232v19.713h9.859a7.679,7.679,0,0,1,7.666,7.666v10.951a7.68,7.68,0,0,1-7.666,7.67h-9.859Zm-13.141-20.811v10.951a5.478,5.478,0,0,0,5.477,5.475h17.523a5.476,5.476,0,0,0,5.471-5.475v-10.951a5.481,5.481,0,0,0-5.471-5.477h-17.523A5.482,5.482,0,0,0,23319.191,22589.139Zm55.854-14.238a6.559,6.559,0,0,1-2.7,5.3,8.768,8.768,0,0,1,4.889,7.848,5.486,5.486,0,0,0,5.477-5.477v-10.951a5.481,5.481,0,0,0-5.477-5.475h-17.523a5.481,5.481,0,0,0-5.477,5.475v10.951a5.486,5.486,0,0,0,5.477,5.477,8.757,8.757,0,0,1,4.889-7.848,6.567,6.567,0,1,1,10.445-5.3Zm-13.145,13.146h13.145a6.572,6.572,0,1,0-13.145,0Zm2.193-13.146a4.379,4.379,0,1,0,4.379-4.379A4.384,4.384,0,0,0,23364.094,22574.9Zm-31.762-16.422v1.092h37.232v-1.092a3.292,3.292,0,0,0-3.281-3.291h-30.664A3.293,3.293,0,0,0,23332.332,22558.479Zm12.049,58.037v-2.189h13.141v2.189Zm-14.3-23.715-1.455,2.91h-7.248v-2.189h5.893l2.928-5.852,4.467,10.049,2.518-4.2h8.287v2.189h-7.043l-4.055,6.75Zm30.719,5.1v-2.189h2.189v2.189Zm-4.379,0v-2.189h2.189v2.189Zm-4.379,0v-2.189h2.189v2.189Zm-4.383-20.811v-2.189h2.189v2.189Zm-4.379,0v-2.189h2.189v2.189Zm-4.383,0v-2.189h2.193v2.189Z" transform="translate(-23316.998 -22552.998)" fill="#0c0b52"/>
</svg>
