<svg xmlns="http://www.w3.org/2000/svg" width="59.492" height="48.564" viewBox="0 0 59.492 48.564">
  <path id="Union_87" data-name="Union 87" d="M23369.137,22601.566l-45.795-5.15a3.864,3.864,0,0,1-3.5-3.932,3.98,3.98,0,0,1-2.84-3.8v-31.721a3.976,3.976,0,0,1,3.967-3.961h45.6a3.974,3.974,0,0,1,3.961,3.961v4.77l2.381.287a3.689,3.689,0,0,1,2.676,1.49,3.844,3.844,0,0,1,.893,2.869l-2.975,31.82a3.967,3.967,0,0,1-3.961,3.367Zm-45.5-7.133,45.7,5.15a2,2,0,0,0,2.178-1.783l2.973-31.816a2,2,0,0,0-.393-1.484,1.7,1.7,0,0,0-1.291-.7l-2.281-.2v25.08a3.974,3.974,0,0,1-3.961,3.965h-44.7A2,2,0,0,0,23323.641,22594.434Zm-4.658-5.75a1.986,1.986,0,0,0,1.982,1.982h45.6a1.983,1.983,0,0,0,1.979-1.982v-20.814h-49.557Zm0-22.8h49.557v-5.943h-49.557Zm0-8.922v1h49.557v-1a1.983,1.983,0,0,0-1.979-1.979h-45.6A1.987,1.987,0,0,0,23318.982,22556.963Zm29.732,29.738a.941.941,0,0,1-.992-.992v-8.924a.94.94,0,0,1,.992-.99h15.863a.935.935,0,0,1,.986.99v8.924a.936.936,0,0,1-.986.992Zm.992-1.984h13.879v-6.939h-13.879Zm-10.9-6.939a.991.991,0,1,1,0-1.982h2.973a.991.991,0,1,1,0,1.982Zm-16.85,0a.991.991,0,1,1,0-1.982h12.883a.991.991,0,1,1,0,1.982Zm11.891-3.961a.991.991,0,0,1,0-1.982h7.932a.991.991,0,1,1,0,1.982Zm-11.891,0a.991.991,0,1,1,0-1.982h7.932a.991.991,0,0,1,0,1.982Z" transform="translate(-23316.998 -22553.002)" fill="#0c0b52"/>
</svg>
