<svg xmlns="http://www.w3.org/2000/svg" width="51.922" height="73.141" viewBox="0 0 51.922 73.141">
  <path id="Union_89" data-name="Union 89" d="M23322.9,22626.139a5.913,5.913,0,0,1-5.906-5.9v-51.891a5.909,5.909,0,0,1,5.906-5.9h6.938l.793-1.584a3.512,3.512,0,0,1,3.166-1.959h1.256a8.243,8.243,0,0,1,15.8-.018h1.256a3.518,3.518,0,0,1,3.166,1.959l.793,1.584h6.938a5.914,5.914,0,0,1,5.906,5.906v51.9a5.913,5.913,0,0,1-5.906,5.9Zm-3.543-57.8v51.9a3.539,3.539,0,0,0,3.543,3.537h40.109a3.539,3.539,0,0,0,3.543-3.537h-.029v-51.9a3.54,3.54,0,0,0-3.543-3.543h-5.959a3.089,3.089,0,0,1-3.066,3.543h-22.029a3.132,3.132,0,0,1-2.65-1.484,3.089,3.089,0,0,1-.416-2.059h-5.959A3.54,3.54,0,0,0,23319.361,22568.336Zm13.391-6.422-1.484,2.961a.762.762,0,0,0,.68,1.109h22.023a.762.762,0,0,0,.68-1.109l-1.484-2.961a1.163,1.163,0,0,0-1.049-.652h-3.186l-.17-.979a5.884,5.884,0,0,0-11.605,0l-.17.979h-3.186A1.163,1.163,0,0,0,23332.752,22561.914Zm-8.5,57.158v-2.363h37.752v2.363Zm35.393-7.084v-2.365h2.359v2.365Zm-4.727,0v-2.365h2.363v2.365Zm-4.721,0v-2.365h2.363v2.365Zm-25.945,0v-2.365h23.6v2.365Zm4.094-22.416h-5.273v-2.352h4.135a8.974,8.974,0,0,1-.633-3.109,9.672,9.672,0,0,1,9.43-9.875,9.155,9.155,0,0,0,14.164,0,9.672,9.672,0,0,1,9.43,9.875,9.234,9.234,0,0,1-.615,3.1h4.205v2.363h-5.3c-3.9,7.313-14.8,15.646-14.8,15.646S23332.334,22596.914,23328.348,22589.572Zm14.738,12.639c3.225-2.6,8.973-7.848,12.051-12.639h-2.129l-4.3,4.3-2.463-4.551-3.83,4.721-5.037-9.312-3.385,4.838h-2.908C23334.176,22594.322,23339.895,22599.578,23343.086,22602.211Zm6.191-12.24,2.764-2.762h4.41a7.986,7.986,0,0,0,.791-3.109,7.322,7.322,0,0,0-7.084-7.518,6.957,6.957,0,0,0-6.047,3.646l-1.025,1.795-1.021-1.795a6.922,6.922,0,0,0-6.047-3.646,7.322,7.322,0,0,0-7.084,7.518,7.646,7.646,0,0,0,.82,3.109h3.01l4.867-6.957,5.184,9.561,3.83-4.721Z" transform="translate(-23316.998 -22552.998)" fill="#0c0b52"/>
</svg>
