<svg xmlns="http://www.w3.org/2000/svg" width="60.75" height="60.75" viewBox="0 0 60.75 60.75">
  <g id="signs" transform="translate(0.375 0.375)">
    <g id="Group_23" data-name="Group 23">
      <g id="Group_22" data-name="Group 22">
        <path id="Path_184" data-name="Path 184" d="M30,0A29.828,29.828,0,0,0,11,6.8V1A1,1,0,0,0,9,1V9c0,.008,0,.015,0,.023A1,1,0,0,0,10.189,10H18a1,1,0,1,0,0-2H12.7A27.99,27.99,0,1,1,2,30a1,1,0,0,0-2,0A30,30,0,1,0,30,0Z" fill="#373a5b"/>
        <path id="Path_184_-_Outline" data-name="Path 184 - Outline" d="M10-.375A1.377,1.377,0,0,1,11.375,1V6.019A30.365,30.365,0,1,1-.375,30a1.375,1.375,0,0,1,2.75,0A27.625,27.625,0,1,0,30,2.375a27.27,27.27,0,0,0-16.187,5.25H18a1.375,1.375,0,1,1,0,2.75H10.222a1.387,1.387,0,0,1-.223.018A1.371,1.371,0,0,1,8.626,9.035c0-.012,0-.024,0-.035V1A1.377,1.377,0,0,1,10-.375Zm.625,7.968V1a.625.625,0,0,0-1.25,0V8.992c0,.007,0,.014,0,.02v.01A.621.621,0,0,0,10,9.643a.634.634,0,0,0,.119-.011l.035-.007H18a.625.625,0,1,0,0-1.25H11.617l.848-.669A28.365,28.365,0,1,1,1.625,30a.625.625,0,0,0-1.25,0A29.656,29.656,0,1,0,11.238,7.09Z" fill="#373a5b"/>
        <path id="Path_185" data-name="Path 185" d="M261.774,128.05a1,1,0,0,0-1.119.367l-13,18a1,1,0,0,0,.811,1.585h12v7a1,1,0,1,0,2,0v-7h4a1,1,0,1,0,0-2h-4V129A1,1,0,0,0,261.774,128.05ZM260.466,146H250.422l10.044-13.907Z" transform="translate(-218.466 -113.002)" fill="#373a5b"/>
        <path id="Path_185_-_Outline" data-name="Path 185 - Outline" d="M261.467,127.627h0A1.372,1.372,0,0,1,262.841,129v16.625h3.625a1.375,1.375,0,1,1,0,2.75h-3.625V155a1.375,1.375,0,1,1-2.75,0v-6.625H248.466a1.375,1.375,0,0,1-1.115-2.179l13-18A1.38,1.38,0,0,1,261.467,127.627Zm5,20a.625.625,0,1,0,0-1.25h-4.375V129a.624.624,0,0,0-.433-.6.629.629,0,0,0-.7.23l-13,18a.625.625,0,0,0,.507.99h12.375V155a.625.625,0,1,0,1.25,0v-7.375Zm-5.625-16.692v15.442H249.689Zm-.75,14.692V133.254l-8.936,12.372Z" transform="translate(-218.466 -113.002)" fill="#373a5b"/>
        <path id="Path_186" data-name="Path 186" d="M100.856,142.547l.078-.069a8.6,8.6,0,0,0,1.853-9.33A8.051,8.051,0,0,0,95.378,128h-.157a9.957,9.957,0,0,0-9.889,10,1,1,0,0,0,2,0,7.954,7.954,0,0,1,7.889-8h.131a6,6,0,0,1,5.582,3.9,6.538,6.538,0,0,1-1.379,7.129l-13.413,10.89A2.321,2.321,0,0,0,87.657,156h15.675a1,1,0,1,0,0-2H87.657a.3.3,0,0,1-.3-.21.292.292,0,0,1,.069-.337Z" transform="translate(-75.332 -112.999)" fill="#373a5b"/>
        <path id="Path_186_-_Outline" data-name="Path 186 - Outline" d="M103.332,156.374H87.657a2.7,2.7,0,0,1-1.76-4.74l.008-.007L99.3,140.75a6.171,6.171,0,0,0,1.284-6.71,5.639,5.639,0,0,0-5.24-3.665h-.128A7.578,7.578,0,0,0,87.707,138a1.375,1.375,0,1,1-2.75,0,10.332,10.332,0,0,1,10.264-10.375h.16a8.425,8.425,0,0,1,7.754,5.382,8.973,8.973,0,0,1-1.935,9.736l-.017.016-.09.079L87.807,153.624h15.525a1.375,1.375,0,1,1,0,2.75Zm-16.949-4.168a1.946,1.946,0,0,0,1.274,3.418h15.675a.625.625,0,1,0,0-1.25H87.657a.675.675,0,0,1-.653-.453.663.663,0,0,1,.174-.751l.01-.008,13.426-10.9.064-.056a8.225,8.225,0,0,0,1.762-8.916,7.685,7.685,0,0,0-7.067-4.914h-.153A9.58,9.58,0,0,0,85.707,138a.625.625,0,1,0,1.25,0,8.329,8.329,0,0,1,8.264-8.375h.134a6.37,6.37,0,0,1,5.927,4.133,6.912,6.912,0,0,1-1.46,7.533l-.031.028Z" transform="translate(-75.332 -112.999)" fill="#373a5b"/>
        <path id="Path_187" data-name="Path 187" d="M9.729,118.412a1,1,0,0,0,1.232-.7,28.37,28.37,0,0,1,3.869-8.372,1,1,0,1,0-1.654-1.124,30.352,30.352,0,0,0-4.143,8.961A1,1,0,0,0,9.729,118.412Z" transform="translate(-7.942 -95.151)" fill="#373a5b"/>
        <path id="Path_187_-_Outline" data-name="Path 187 - Outline" d="M10,118.824a1.377,1.377,0,0,1-1.326-1.743,30.724,30.724,0,0,1,4.194-9.072,1.375,1.375,0,1,1,2.274,1.545,27.994,27.994,0,0,0-3.818,8.262A1.379,1.379,0,0,1,10,118.824ZM14,108.157a.626.626,0,0,0-.519.274,29.975,29.975,0,0,0-4.092,8.85.625.625,0,1,0,1.205.334,28.742,28.742,0,0,1,3.92-8.482.627.627,0,0,0-.167-.869A.617.617,0,0,0,14,108.157Z" transform="translate(-7.942 -95.151)" fill="#373a5b"/>
      </g>
    </g>
  </g>
</svg>
