<svg xmlns="http://www.w3.org/2000/svg" width="46.709" height="68.357" viewBox="0 0 46.709 68.357">
  <path id="Union_85" data-name="Union 85" d="M23322.7,22621.357a5.709,5.709,0,0,1-5.7-5.7v-56.965a5.7,5.7,0,0,1,5.7-5.693h29.617a5.7,5.7,0,0,1,5.7,5.693v15.955h-2.281v-10.256h-36.453v45.57h36.453v-10.254h2.281v15.949a5.709,5.709,0,0,1-5.7,5.7Zm-3.418-5.7a3.419,3.419,0,0,0,3.418,3.418h29.617a3.418,3.418,0,0,0,3.418-3.418v-3.42h-36.453Zm0-56.965v3.418h36.453v-3.418a3.415,3.415,0,0,0-3.418-3.412H23322.7A3.417,3.417,0,0,0,23319.279,22558.693Zm15.949,58.107v-2.281h4.557v2.281Zm-7.975-19.373a2.279,2.279,0,0,1-2.281-2.275V22579.2a2.281,2.281,0,0,1,2.281-2.281h22.785a2.279,2.279,0,0,1,2.275,2.281v2.715l8.1-4.051a2.276,2.276,0,0,1,3.295,2.041v14.541a2.272,2.272,0,0,1-3.3,2.035l-8.092-4.047v2.715a2.276,2.276,0,0,1-2.275,2.275Zm0-2.275h22.785V22579.2h-22.785Zm25.061-10.689v5.43l9.117,4.557v-14.541Zm-26.2-24.627v-2.281h6.836v2.281Zm-4.557,0v-2.281h2.281v2.281Z" transform="translate(-23316.998 -22553)" fill="#0c0b52"/>
</svg>
