<svg xmlns="http://www.w3.org/2000/svg" width="51.691" height="68.916" viewBox="0 0 51.691 68.916">
  <path id="Union_86" data-name="Union 86" d="M23322.746,22621.918a5.747,5.747,0,0,1-5.746-5.74v-57.434a5.747,5.747,0,0,1,5.746-5.742h30.146a1.455,1.455,0,0,1,1.02.416l14.357,14.363a1.433,1.433,0,0,1,.422,1.014v47.383a5.75,5.75,0,0,1-5.742,5.74Zm-2.873-63.174v57.434a2.87,2.87,0,0,0,2.873,2.867h40.2a2.873,2.873,0,0,0,2.869-2.867v-45.945h-8.615a5.751,5.751,0,0,1-5.742-5.748v-8.615h-28.715A2.876,2.876,0,0,0,23319.873,22558.744Zm34.461,5.74a2.875,2.875,0,0,0,2.869,2.875h6.586l-9.455-9.455Zm-2.609,45.348-4.311-6.041-4.885,6.105a1.435,1.435,0,0,1-2.24-1.795l5.389-6.738-7.881-11.031h-3.566v7.178a1.437,1.437,0,1,1-2.873,0v-20.1a1.434,1.434,0,0,1,1.436-1.436h5.742a7.162,7.162,0,0,1,2.463,13.893l6.545,9.162,4.229-5.291a1.438,1.438,0,0,1,2.246,1.795l-4.738,5.93,4.785,6.7a1.444,1.444,0,0,1-.334,2.006,1.416,1.416,0,0,1-.832.264A1.432,1.432,0,0,1,23351.725,22609.832Zm-17.494-22.375h4.3a4.308,4.308,0,1,0,0-8.615h-4.3Z" transform="translate(-23317 -22553.002)" fill="#0c0b52"/>
</svg>
