<svg xmlns="http://www.w3.org/2000/svg" width="65.588" height="62.001" viewBox="0 0 65.588 62.001"><path id="Path_14785" data-name="Path 14785" d="M3.481,32.443H14.6a3.486,3.486,0,0,1,3.481,3.483v12.8h4.16a9.556,9.556,0,0,1-.261-2.986h0a27.922,27.922,0,0,1,2.63-12.213,13.1,13.1,0,0,1,4.071-4.908A8.909,8.909,0,0,1,26.3,22.313a8.152,8.152,0,1,1,16.3,0,.961.961,0,0,1-.961.961h-.653a6.764,6.764,0,0,1,.092,1.107,6.671,6.671,0,0,1-5.36,6.535,16.193,16.193,0,0,1,.478,4.179l2.4,2.061,5.831.472L51.152,35.4a2.037,2.037,0,0,1,1.921,0,1.706,1.706,0,0,1,.6,1.434v5a.961.961,0,0,1-.961.961H51.566l1.754,6.062a.961.961,0,0,1-1.846.534l-1.909-6.6H46.834c3.4,10.36,1.459,17.275-1.521,24.273H47.04l7.193-8.043-1.521-5.255a.961.961,0,0,1,1.846-.534l1.455,5.026a9.664,9.664,0,0,1,9.55,7.491.961.961,0,0,1-.721,1.151l-1.364.314a7.351,7.351,0,0,1-14.206,3.269L48.2,70.74a1.255,1.255,0,0,1-.929-.052,1.1,1.1,0,0,1-.541-.737,9.558,9.558,0,0,1-.155-.957H26.477a8.187,8.187,0,0,1-16.2,0H9.541l-.179,0a1.316,1.316,0,0,1-1-.362,1.231,1.231,0,0,1-.34-.934,10.891,10.891,0,0,1,.394-2.6c-.765-4.646-.029-7.476,1.063-9.69A2.529,2.529,0,0,1,8.334,53.29V50.649H3.481A3.486,3.486,0,0,1,0,47.167V35.926a3.485,3.485,0,0,1,3.481-3.483Zm49.8,40.087a5.389,5.389,0,0,0,4.1.691h0a5.444,5.444,0,0,0,4.209-5.561l-10.421,2.4a5.4,5.4,0,0,0,2.115,2.472ZM48.472,68.7l14.945-3.439A7.737,7.737,0,0,0,55.768,60.2l-7.321,8.186Q48.456,68.545,48.472,68.7ZM33.96,51.963a8.554,8.554,0,0,1,.279,2.9v3.626h3.518V53.512c0-5.623-3.069-6.626-4.446-6.791H23.892a4.073,4.073,0,0,0,.873,2.759,4.461,4.461,0,0,0,3.333,1l3.449,0a2.315,2.315,0,0,1,2.414,1.479Zm.279,8.445V62.7H41.09a2.738,2.738,0,0,0-.662-1.643,2.37,2.37,0,0,0-1.71-.651ZM23.934,44.8h8.737a35.875,35.875,0,0,0,.921-3.556l-2.656-1.724a3.965,3.965,0,0,1-2.07-3.651,3.4,3.4,0,0,1,2.116-2.781,3.468,3.468,0,0,1,3.225.355,11.344,11.344,0,0,0-.464-2.436,6.772,6.772,0,0,1-1.216-.24,7.959,7.959,0,0,1-2.243-.889c-1.85,1.106-5.92,4.691-6.351,14.921ZM40.61,21.352a6.22,6.22,0,0,0-12.388.961,6.524,6.524,0,0,0,3.591,6.193V23.45a1.912,1.912,0,0,1,1.93-2.094q.043,0,.087,0Zm-1.451,3.029a4.784,4.784,0,0,0-.128-1.107H33.878c-.059.006-.1.013-.134.02a1.142,1.142,0,0,0-.009.157v5.621a4.752,4.752,0,0,0,.689.051h.006A4.742,4.742,0,0,0,39.159,24.381ZM40.4,39.23l-2.276-.184a.961.961,0,0,1-.549-.229l-4.107-3.532h0a1.908,1.908,0,0,0-1.234-.518,1.479,1.479,0,0,0-1.46,1.289,2.119,2.119,0,0,0,1.2,1.852l4.576,2.97H40.4V39.23Zm4.06.328-2.139-.173v1.493h2.485c.322,0,.4-.268.41-.492A.763.763,0,0,0,44.465,39.559Zm2.274-.663a2.775,2.775,0,0,1,.354,1.975s0,.005,0,.008h4.655V37.231l-5.013,1.657Zm-1.933,3.9H36.274a.961.961,0,0,1-.523-.155l-.435-.282c-.209.925-.447,1.824-.707,2.674,1.959.578,5.07,2.448,5.07,8.475v5.07a4.01,4.01,0,0,1,2.139,1.148,4.686,4.686,0,0,1,1.2,2.971h1.938c1.953-5.629,2.7-11.618-.151-19.9ZM43.222,67.07c.355-.817.7-1.63,1.02-2.447H34.266c-1.293,0-1.948-.589-1.948-1.749V55.821H24.734a.961.961,0,1,1,0-1.922h7.577a4.349,4.349,0,0,0-.147-1.256c-.049-.128-.091-.239-.618-.239l-3.45,0c-2.16,0-3.706-.525-4.725-1.6-.047-.05-.092-.1-.136-.154H10.255V53.29a.617.617,0,0,0,.608.609h9.565a.961.961,0,0,1,0,1.922h-9a11.343,11.343,0,0,0-1.4,5.934,10.427,10.427,0,0,1,15.881-1.24,10.584,10.584,0,0,1,3.02,6.558ZM18.376,74.08a6.331,6.331,0,0,0,6.149-5.085h-12.3A6.331,6.331,0,0,0,18.376,74.08Zm-7.241-7.007H27a8.618,8.618,0,0,0-8.5-7.734,8.525,8.525,0,0,0-8.176,6.109l-.011.034a8.868,8.868,0,0,0-.317,1.592ZM1.921,47.167a1.562,1.562,0,0,0,1.559,1.561H16.162V43.766H1.921Zm0-5.322H16.162V39.8H1.921Zm0-3.965H16.162V35.926A1.562,1.562,0,0,0,14.6,34.365H3.481a1.562,1.562,0,0,0-1.559,1.561Z" transform="translate(0 -14)"></path></svg>
