<svg xmlns="http://www.w3.org/2000/svg" width="57.143" height="68.598" viewBox="0 0 57.143 68.598">
  <path id="Union_91" data-name="Union 91" d="M23327.521,22621.6a10.533,10.533,0,0,1-10.52-10.523v-40.213a10.529,10.529,0,0,1,10.52-10.523h15.258a1,1,0,0,1,0,2.006h-15.258a8.533,8.533,0,0,0-8.453,7.508h28.662a1.007,1.007,0,0,1,0,2.014h-28.721v38.205h6.91a1.006,1.006,0,1,1,0,2.012h-6.852a8.528,8.528,0,0,0,8.453,7.5h21.756a8.524,8.524,0,0,0,8.453-7.5h-27.711a1.006,1.006,0,1,1,0-2.012h27.77v-26.92a1.007,1.007,0,1,1,2.014,0v27.924a10.538,10.538,0,0,1-10.525,10.523Zm10.588-4.758a1.006,1.006,0,0,1,0-2.012h.574a1.006,1.006,0,1,1,0,2.012Zm-8.963-15.615a1,1,0,1,1,0-2.006h7.479a.8.8,0,0,1-.07-.07l-3.168-3.168-3.168-3.162a7.093,7.093,0,0,1,10.031-10.031l6.33,6.33a7.082,7.082,0,0,1,0,10.031l-.07.07h1.145a1,1,0,1,1,0,2.006Zm6.369-5.955,2.459,2.459a5.082,5.082,0,0,0,7.361-7c-.059-.064-.117-.123-.176-.187l-2.457-2.453Zm-3.877-11.062a5.084,5.084,0,0,0,0,7.186l2.459,2.459,7.186-7.187-2.453-2.457a5.083,5.083,0,0,0-7.191,0Zm24.6-7.051h-5.092a2,2,0,0,1-2-2v-1.107a2,2,0,0,1,2-2,1.31,1.31,0,0,0,1.307-1.309v-7.4a7.478,7.478,0,0,1,6.471-7.41v-1.037a1.006,1.006,0,0,1,2.012,0v1.043a7.553,7.553,0,0,1,6.471,7.486v7.32a1.311,1.311,0,0,0,1.309,1.309,2,2,0,0,1,2,2v1.107a2,2,0,0,1-2,2h-4.57a4.079,4.079,0,0,1-7.906,0Zm3.953,1.061a2.069,2.069,0,0,0,1.807-1.061h-3.613A2.066,2.066,0,0,0,23360.189,22578.215Zm-4.125-18.748a5.42,5.42,0,0,0-1.605,3.867v7.4a3.32,3.32,0,0,1-3.314,3.32l.006,1.1,5.865-.006c.029,0,.064-.006.1-.006h6.148c.018,0,.029.006.047.006l5.4-.006-.006-1.1h-.018a3.31,3.31,0,0,1-3.3-3.309v-7.32a5.528,5.528,0,0,0-5.4-5.551h-.064A5.451,5.451,0,0,0,23356.064,22559.467Zm-21.756,7.639a1.006,1.006,0,1,1,0-2.012h8.188a1.006,1.006,0,0,1,0,2.012Zm37.824-2.869v-.9a10.6,10.6,0,0,0-4.254-8.525,1.007,1.007,0,0,1,1.215-1.605,12.613,12.613,0,0,1,5.051,10.131v.9a1.006,1.006,0,0,1-2.012,0Zm-26.416,0v-.9a12.6,12.6,0,0,1,5.051-10.131,1,1,0,1,1,1.209,1.605,10.618,10.618,0,0,0-4.252,8.525v.9a1,1,0,0,1-2.008,0Zm23.119-.814v-.088a8.031,8.031,0,0,0-3.033-6.3,1.006,1.006,0,0,1,1.256-1.572,10.038,10.038,0,0,1,3.789,7.873v.088a1.006,1.006,0,0,1-2.012,0Zm-19.828,0v-.088a10.034,10.034,0,0,1,3.791-7.873,1.006,1.006,0,0,1,1.254,1.572,8.023,8.023,0,0,0-3.033,6.3v.088a1.006,1.006,0,0,1-2.012,0Z" transform="translate(-23317.002 -22552.998)" fill="#0c0b52"/>
</svg>
