<svg xmlns="http://www.w3.org/2000/svg" width="51.03" height="65.904" viewBox="0 0 51.03 65.904">
  <g id="shield" transform="translate(-9.615 -1.625)">
    <path id="Path_19527" data-name="Path 19527" d="M58.91,51.041a.931.931,0,0,1-.826-1.359c.422-.815.786-1.593,1.117-2.377a.931.931,0,0,1,1.718.715c-.345.832-.731,1.656-1.177,2.519a.931.931,0,0,1-.832.5Z" transform="translate(-3.322 -3.098)" fill="#373a5b"/>
    <path id="Path_19527_-_Outline" data-name="Path 19527 - Outline" d="M58.916,51.416h-.008a1.306,1.306,0,0,1-1.156-1.906c.413-.8.774-1.568,1.1-2.35l0-.007a1.306,1.306,0,0,1,2.41,1l0,.008c-.348.839-.738,1.672-1.191,2.547A1.3,1.3,0,0,1,58.916,51.416Zm.629-3.961c-.337.8-.706,1.584-1.128,2.4a.556.556,0,0,0,.493.812l.005.375v-.375a.554.554,0,0,0,.493-.3c.442-.854.823-1.667,1.162-2.485a.556.556,0,0,0-1.026-.426Z" transform="translate(-3.322 -3.098)" fill="#373a5b"/>
    <path id="Path_19528" data-name="Path 19528" d="M35.13,67.154a.94.94,0,0,1-.42-.1C19.232,59.243,9.99,46.138,9.99,32V13.169a.932.932,0,0,1,1.026-.926c9.2.948,17.079-2.388,23.4-9.912a.931.931,0,0,1,.7-.331.918.918,0,0,1,.71.318c5.554,6.353,13.47,9.689,23.53,9.92a.931.931,0,0,1,.909.931V28.5a.931.931,0,1,1-1.862,0V14.072c-9.757-.4-17.574-3.677-23.262-9.737-6.385,7.186-14.214,10.492-23.3,9.849V32c0,13.3,8.692,25.67,23.279,33.179A47.935,47.935,0,0,0,51.3,52.023a.931.931,0,1,1,1.479,1.131,49.983,49.983,0,0,1-17.231,13.9.94.94,0,0,1-.42.1Z" fill="#373a5b"/>
    <path id="Path_19528_-_Outline" data-name="Path 19528 - Outline" d="M35.131,67.529h0a1.322,1.322,0,0,1-.587-.139C18.933,59.512,9.615,46.282,9.615,32V13.169a1.306,1.306,0,0,1,1.309-1.306c.042,0,.085,0,.128.006a29.145,29.145,0,0,0,2.972.156c7.8,0,14.565-3.343,20.106-9.935a1.3,1.3,0,0,1,.987-.465h.019a1.292,1.292,0,0,1,.979.449c5.479,6.267,13.3,9.562,23.255,9.79a1.313,1.313,0,0,1,1.276,1.306V28.5a1.306,1.306,0,0,1-2.612,0V14.431c-9.527-.466-17.221-3.675-22.879-9.543-5.875,6.47-12.976,9.75-21.111,9.75-.6,0-1.207-.018-1.817-.053V32c0,13.077,8.559,25.311,22.906,32.758A47.875,47.875,0,0,0,51.006,51.792a1.306,1.306,0,0,1,2.073,1.589l0,0A50.358,50.358,0,0,1,35.715,67.391,1.318,1.318,0,0,1,35.131,67.529ZM10.924,12.614a.564.564,0,0,0-.377.144.556.556,0,0,0-.182.411V32c0,13.994,9.164,26.974,24.514,34.721a.567.567,0,0,0,.251.059h0a.568.568,0,0,0,.251-.06,49.916,49.916,0,0,0,17.1-13.8.556.556,0,0,0-.885-.673l0,0A48.31,48.31,0,0,1,35.3,65.514l-.17.085-.169-.087a52.439,52.439,0,0,1-9.861-6.53,42.586,42.586,0,0,1-7.383-8.008,35.154,35.154,0,0,1-4.632-9.12A31.286,31.286,0,0,1,11.477,32V13.782l.4.028c.727.051,1.456.077,2.166.077,8.038,0,15.043-3.3,20.823-9.8l.273-.307.281.3c5.615,5.982,13.354,9.218,23,9.619l.359.015V28.5a.556.556,0,0,0,1.112,0V13.169a.559.559,0,0,0-.543-.556C49.183,12.38,41.174,9,35.549,2.565a.544.544,0,0,0-.413-.19h-.009a.557.557,0,0,0-.423.2c-5.689,6.77-12.647,10.2-20.68,10.2a29.887,29.887,0,0,1-3.047-.159Z" fill="#373a5b"/>
    <path id="Path_19529" data-name="Path 19529" d="M62.251,41.672a.883.883,0,0,1-.186-.019.931.931,0,0,1-.731-1.095c.186-.9.328-1.827.436-2.746a.931.931,0,1,1,1.849.217c-.114.968-.268,1.942-.459,2.894a.931.931,0,0,1-.908.748Z" transform="translate(-3.553 -2.422)" fill="#373a5b"/>
    <path id="Path_19529_-_Outline" data-name="Path 19529 - Outline" d="M62.246,42.047a1.26,1.26,0,0,1-.257-.027,1.307,1.307,0,0,1-1.022-1.535c.173-.839.318-1.752.431-2.716a1.3,1.3,0,0,1,1.3-1.154,1.321,1.321,0,0,1,.153.009,1.307,1.307,0,0,1,1.145,1.449c-.115.977-.271,1.961-.464,2.924a1.31,1.31,0,0,1-1.274,1.05Zm.448-4.681a.555.555,0,0,0-.551.491c-.116.986-.264,1.92-.441,2.778a.556.556,0,0,0,.437.651.518.518,0,0,0,.107.011h0a.558.558,0,0,0,.543-.447c.189-.943.342-1.907.454-2.864a.556.556,0,0,0-.487-.617A.565.565,0,0,0,62.693,37.365Z" transform="translate(-3.553 -2.422)" fill="#373a5b"/>
    <path id="Path_19530" data-name="Path 19530" d="M35.523,61.615a.925.925,0,0,1-.456-.12c-12.148-6.828-19.4-17.607-19.4-28.834v-13.6a.931.931,0,0,1,.889-.931A28.428,28.428,0,0,0,35,10.248a.931.931,0,0,1,1.233-.029,33.714,33.714,0,0,0,18.319,7.5.931.931,0,0,1,.826.924v14.02c0,11.227-7.253,22.006-19.4,28.834a.925.925,0,0,1-.456.12ZM17.529,19.942v12.72c0,10.405,6.716,20.447,17.995,26.949,11.279-6.5,18-16.547,18-26.952V19.463a35.478,35.478,0,0,1-17.854-7.3,30.129,30.129,0,0,1-18.136,7.781Z" transform="translate(-0.393 -0.554)" fill="#373a5b"/>
    <path id="Path_19530_-_Outline" data-name="Path 19530 - Outline" d="M35.523,61.99a1.3,1.3,0,0,1-.641-.169c-12.266-6.894-19.59-17.8-19.59-29.16v-13.6a1.3,1.3,0,0,1,1.247-1.305,28.039,28.039,0,0,0,18.2-7.782l0,0a1.306,1.306,0,0,1,1.728-.042,33.214,33.214,0,0,0,18.113,7.412H54.6a1.305,1.305,0,0,1,1.158,1.3v14.02c0,11.365-7.324,22.266-19.592,29.161a1.3,1.3,0,0,1-.64.168v0ZM35.26,10.521a28.789,28.789,0,0,1-18.688,7.987.555.555,0,0,0-.53.556v13.6c0,11.089,7.181,21.746,19.209,28.507a.553.553,0,0,0,.269.072h0a.551.551,0,0,0,.271-.071c12.03-6.761,19.211-17.418,19.211-28.508V18.64a.555.555,0,0,0-.49-.551,34.057,34.057,0,0,1-9.825-2.4A34.058,34.058,0,0,1,36,10.509l0,0a.556.556,0,0,0-.734.015Zm.263,49.522-.187-.108A43.882,43.882,0,0,1,27.7,54.4a36.047,36.047,0,0,1-5.716-6.589A29.534,29.534,0,0,1,18.4,40.462a25.463,25.463,0,0,1-1.244-7.8V19.592l.348-.025a29.881,29.881,0,0,0,17.91-7.684l.234-.213.249.2a35.086,35.086,0,0,0,17.665,7.226l.333.038v13.53a25.466,25.466,0,0,1-1.244,7.8,29.541,29.541,0,0,1-3.588,7.346,36.055,36.055,0,0,1-5.717,6.59,43.891,43.891,0,0,1-7.635,5.539ZM17.9,20.289V32.662c0,10.186,6.582,20.084,17.62,26.515,11.038-6.432,17.621-16.332,17.621-26.519V19.8a35.834,35.834,0,0,1-17.461-7.148A30.431,30.431,0,0,1,27.4,17.923,30.431,30.431,0,0,1,17.9,20.289Z" transform="translate(-0.393 -0.554)" fill="#373a5b"/>
    <path id="Path_19531" data-name="Path 19531" d="M32.172,44.779a.931.931,0,0,1-.658-.273l-5.241-5.241a.931.931,0,1,1,1.316-1.316l4.583,4.585L44.888,29.815a.931.931,0,0,1,1.317,1.316L32.83,44.506a.931.931,0,0,1-.658.273Z" transform="translate(-1.108 -1.907)" fill="#373a5b"/>
    <path id="Path_19531_-_Outline" data-name="Path 19531 - Outline" d="M32.172,45.154h0a1.3,1.3,0,0,1-.923-.382L26.008,39.53a1.306,1.306,0,1,1,1.847-1.847L32.172,42,44.623,29.55A1.306,1.306,0,0,1,46.471,31.4L33.1,44.771A1.3,1.3,0,0,1,32.172,45.154Zm-5.241-7.1a.556.556,0,0,0-.393.949l5.241,5.241a.559.559,0,0,0,.393.163.552.552,0,0,0,.393-.163L45.94,30.866a.556.556,0,0,0-.787-.786L32.172,43.064l-4.848-4.85A.552.552,0,0,0,26.931,38.051Z" transform="translate(-1.108 -1.907)" fill="#373a5b"/>
  </g>
</svg>
