<svg xmlns="http://www.w3.org/2000/svg" width="59.999" height="60" viewBox="0 0 59.999 60">
  <g id="soccer-gear" transform="translate(0 0)">
    <path id="Path_181" data-name="Path 181" d="M76.524,34.407a22.754,22.754,0,0,0,2.937-8.8c0-.01,0-.02,0-.03a23.069,23.069,0,0,0,.156-2.665A22.827,22.827,0,0,0,73.606,7.456a1.173,1.173,0,0,0-.209-.225A22.985,22.985,0,0,0,64.571,1.39a1.155,1.155,0,0,0-.189-.067,22.912,22.912,0,0,0-16.177.312A1.172,1.172,0,0,0,48,1.72a23.016,23.016,0,0,0-8.392,5.957,1.21,1.21,0,0,0-.2.223,22.866,22.866,0,0,0-5.476,17.56c0,.011,0,.021,0,.031a22.731,22.731,0,0,0,.942,4.4L22.57,42.2a1.172,1.172,0,1,0,1.657,1.658L35.8,32.289a22.85,22.85,0,0,0,1.072,2.086A1.157,1.157,0,0,0,37,34.6a23.022,23.022,0,0,0,13.11,10.26l-8.255,8.255a1.172,1.172,0,1,0,1.658,1.658l9.279-9.28a22.909,22.909,0,0,0,23.583-10.84,1.167,1.167,0,0,0,.146-.247Zm-10.139.046-4.169-6.416,2.217-6.823L69.7,20.031l1.371-.308,5.991,6.152a20.413,20.413,0,0,1-2.374,7.018ZM51.2,28.037,47.03,34.45l-8.33-1.6a20.422,20.422,0,0,1-2.365-7.079l6-6.051,6.647,1.493,1.477,4.547ZM39.649,11.427l1.057,6.607-4.568,4.607a20.452,20.452,0,0,1,3.511-11.214ZM53.336,27.035l-2.07-6.371,5.419-3.937L62.1,20.665l-2.07,6.37Zm23.939-4.3-4.591-4.715L73.5,11.04A20.458,20.458,0,0,1,77.275,22.733ZM71.425,8.559l-1.037,8.917-2.521.566-4.082.916L57.9,14.682V8.338L64.26,3.78a20.646,20.646,0,0,1,7.165,4.779ZM61.464,2.9,56.657,6.346,51.3,3.067A20.6,20.6,0,0,1,61.464,2.9ZM48.453,4.074l7.06,4.319v6.289L51.362,17.7l-1.734,1.26-6.639-1.49L41.625,8.941a20.663,20.663,0,0,1,6.828-4.867ZM40.512,35.586,46.835,36.8l3.22,5.582a20.655,20.655,0,0,1-9.543-6.8Zm12.716,7.6-4.271-7.4,4.164-6.407h7.172l4.164,6.407-4.27,7.4a20.628,20.628,0,0,1-6.958,0Zm10.13-.808,3.218-5.58,6.3-1.183a20.651,20.651,0,0,1-9.517,6.763Zm0,0" transform="translate(-19.621)" fill="#373a5b"/>
    <path id="Path_182" data-name="Path 182" d="M16.14,357.549l-15.8,15.8A1.172,1.172,0,1,0,2,375l15.8-15.8a1.172,1.172,0,1,0-1.658-1.658Zm0,0" transform="translate(0 -315.347)" fill="#373a5b"/>
    <path id="Path_183" data-name="Path 183" d="M157.32,481.012a1.172,1.172,0,1,0,.829.343A1.18,1.18,0,0,0,157.32,481.012Zm0,0" transform="translate(-137.849 -424.644)" fill="#373a5b"/>
  </g>
</svg>
