<svg xmlns="http://www.w3.org/2000/svg" width="52.299" height="68.215" viewBox="0 0 52.299 68.215">
  <path id="Union_90" data-name="Union 90" d="M23359.066,22621.217h-39.795a1.138,1.138,0,0,1-1.137-1.137v-9.537a13.218,13.218,0,0,1,13.2-13.2h23.625a13.218,13.218,0,0,1,13.2,13.2v9.537a1.138,1.138,0,0,1-1.137,1.137Zm6.82-2.275v-8.4a10.936,10.936,0,0,0-10.926-10.926h-23.625a10.94,10.94,0,0,0-10.926,10.926v8.4h6.826v-6.82a1.138,1.138,0,1,1,2.275,0v6.82h28.416v-6.82a1.138,1.138,0,1,1,2.275,0v6.82Zm-15.912-23.875a3.388,3.388,0,0,1-2-.648,18.192,18.192,0,1,1,13.365-17.545,18.015,18.015,0,0,1-2.756,9.605,3.415,3.415,0,0,1,1.621,2.789,5.7,5.7,0,0,0,4.469-4.654,3.419,3.419,0,0,1-2.2-3.189v-9.1a3.4,3.4,0,0,1,1.049-2.455,21.521,21.521,0,0,0-40.756,0,3.4,3.4,0,0,1,1.053,2.459v9.1a3.411,3.411,0,1,1-6.822,0v-9.1a3.415,3.415,0,0,1,3.408-3.408c.094,0,.188,0,.279.012a23.8,23.8,0,0,1,44.922,0q.141-.012.281-.012a3.415,3.415,0,0,1,3.408,3.408v9.1a3.419,3.419,0,0,1-2.334,3.24,7.977,7.977,0,0,1-6.758,6.912v.082a3.418,3.418,0,0,1-3.412,3.408Zm0-2.275h6.822a1.134,1.134,0,0,0,1.137-1.133v-1.021a1.155,1.155,0,0,1,0-.232v-1.021a1.139,1.139,0,0,0-1.137-1.139h-6.822a1.139,1.139,0,0,0-1.137,1.139v2.275a1.145,1.145,0,0,0,.287.738c.021.025.041.051.061.076A1.133,1.133,0,0,0,23349.975,22592.791Zm-22.744-15.918a15.937,15.937,0,0,0,15.918,15.918,16.319,16.319,0,0,0,3.5-.381,3.413,3.413,0,0,1-.084-.752v-2.275a3.416,3.416,0,0,1,3.412-3.414h6.217a15.734,15.734,0,0,0,2.875-9.1,15.918,15.918,0,0,0-31.836,0Zm37.525-4.545v9.1a1.135,1.135,0,1,0,2.27,0v-9.1a1.135,1.135,0,0,0-1.533-1.066,1.216,1.216,0,0,1-.225.115A1.131,1.131,0,0,0,23364.756,22572.328Zm-45.479,0v9.1a1.136,1.136,0,1,0,2.271,0v-9.1a1.137,1.137,0,0,0-.52-.955,1.169,1.169,0,0,1-.215-.109,1.16,1.16,0,0,0-.4-.074A1.135,1.135,0,0,0,23319.277,22572.328Z" transform="translate(-23317.002 -22553.002)" fill="#0c0b52"/>
</svg>
