<svg xmlns="http://www.w3.org/2000/svg" width="73.919" height="68.76" viewBox="0 0 73.919 68.76">
  <g id="Group_17361" data-name="Group 17361" transform="translate(-219 -6027)">
    <path id="Path_3580" data-name="Path 3580" d="M62.38,33.379c4.034-4.71,6.551-11.559,6.551-16.743a16.635,16.635,0,1,0-33.27,0c0,5.184,2.518,12.033,6.551,16.743-24.4,8.2-21.846,30.78-20.777,35.382H83.157A29.944,29.944,0,0,0,62.38,33.379ZM52.3,2.22a14.4,14.4,0,0,1,13.116,8.473c-5.536,3.776-11.153-.487-11.153-.487a11.689,11.689,0,0,0-12.561.528l-3.357,2.355A14.432,14.432,0,0,1,52.3,2.22ZM37.881,16.635c0-.176.014-.352.027-.528l5.062-3.56a9.465,9.465,0,0,1,10.165-.433s6.186,4.737,13.048.717a14.558,14.558,0,0,1,.528,3.79c0,7.878-6.456,19.965-14.415,19.965S37.881,24.513,37.881,16.635ZM81.316,66.54H23.29A27.665,27.665,0,0,1,33.726,40.106a31.483,31.483,0,0,0,2.761,8.947,8.876,8.876,0,0,0-3.641,10.436l1.841,5.225,4.182-1.475-.731-2.1-2.1.731-1.11-3.14a6.657,6.657,0,0,1,12.561-4.413l1.1,3.14-2.1.731.731,2.1L51.4,58.812l-1.841-5.238a8.866,8.866,0,0,0-11.086-5.5,29.064,29.064,0,0,1-2.721-9.434,28.023,28.023,0,0,1,8.216-3.492,12.417,12.417,0,0,0,8.311,3.614,12.417,12.417,0,0,0,8.311-3.614,27.561,27.561,0,0,1,9.434,4.318,28.8,28.8,0,0,1-3.249,8.351,4.3,4.3,0,0,0-1.191-.189,4.44,4.44,0,1,0,4.44,4.44A4.4,4.4,0,0,0,68.7,48.917a31.358,31.358,0,0,0,3.249-7.959A27.842,27.842,0,0,1,81.316,66.54ZM67.821,52.125a2.22,2.22,0,1,1-2.22-2.22A2.23,2.23,0,0,1,67.821,52.125Z" transform="translate(198.201 6027)" fill="#0c0b52"/>
    <path id="Path_3581" data-name="Path 3581" d="M21.531,13.206l-.912-.938a.2.2,0,0,0-.145-.062h0a.188.188,0,0,0-.145.062l-6.32,6.367-2.3-2.3a.2.2,0,0,0-.29,0l-.922.922a.206.206,0,0,0,0,.3l2.9,2.9a.917.917,0,0,0,.606.3.961.961,0,0,0,.6-.285h.005L21.536,13.5A.221.221,0,0,0,21.531,13.206Z" transform="translate(266.135 6025.057)" fill="#0c0b52"/>
    <path id="Path_3582" data-name="Path 3582" d="M14.151,4.826a9.321,9.321,0,1,1-6.595,2.73,9.263,9.263,0,0,1,6.595-2.73m0-1.451A10.776,10.776,0,1,0,24.926,14.151,10.774,10.774,0,0,0,14.151,3.375Z" transform="translate(267.992 6027.381)" fill="#0c0b52"/>
  </g>
</svg>
